<svg width="260" height="61" viewBox="0 0 260 61" fill="none" xmlns="http://www.w3.org/2000/svg">
<g clip-path="url(#clip0_2008_238323)">
<path fill-rule="evenodd" clip-rule="evenodd" d="M18.1951 11.6724C20.5117 11.6601 22.8086 12.0612 24.9571 12.8531C26.9997 13.5998 28.8756 14.6819 30.492 16.0458C32.0641 17.387 33.3284 19.0008 34.2112 20.793C35.1083 22.6297 35.5719 24.6186 35.5719 26.63C35.5719 28.6414 35.1083 30.6302 34.2112 32.467C33.3207 34.2552 32.0574 35.8676 30.492 37.2142C27.1543 40.0556 22.7567 41.6271 18.1951 41.6085H7.11002C5.97129 41.6342 4.83581 41.4867 3.75008 41.1719C2.90867 40.9211 2.15097 40.4787 1.54834 39.8864C0.989577 39.2957 0.590262 38.5934 0.382492 37.8359C0.122138 36.9427 -0.00641531 36.0217 0.000246191 35.0973V18.1661C-0.00621175 17.243 0.122341 16.3231 0.382492 15.431C0.597922 14.675 1.00964 13.9777 1.58274 13.398C2.19566 12.8171 2.95005 12.3766 3.78448 12.1126C4.8672 11.7844 6.00411 11.6308 7.14442 11.6584L18.1951 11.6724ZM7.44257 16.1506C7.2103 16.1596 6.98088 16.2008 6.76217 16.2729C6.48483 16.3545 6.22586 16.4811 5.99768 16.6466C5.75971 16.8258 5.56012 17.0437 5.40902 17.2894C5.23538 17.5741 5.14828 17.8961 5.15674 18.222V35.0589C5.14434 35.3985 5.23143 35.735 5.40902 36.0335C5.56426 36.2816 5.76914 36.5008 6.01297 36.6797C6.23766 36.8446 6.49831 36.9637 6.77746 37.029C6.99814 37.0915 7.22697 37.1268 7.45786 37.1338H17.9238C19.5827 37.1456 21.2293 36.8731 22.7783 36.3304C24.2481 35.8086 25.5978 35.0397 26.7575 34.0634C27.8918 33.1414 28.8109 32.0199 29.4599 30.7659C30.1022 29.4845 30.4347 28.0917 30.4347 26.6824C30.4347 25.273 30.1022 23.8802 29.4599 22.5989C28.8041 21.3364 27.8863 20.2023 26.7575 19.2595C24.3446 17.2395 21.1845 16.1288 17.9123 16.1506H7.44257Z" fill="white"/>
<path fill-rule="evenodd" clip-rule="evenodd" d="M69.603 11.67H74.8207V34.5991C74.8279 35.5292 74.6344 36.4516 74.2511 37.3133C73.8841 38.1443 73.3367 38.8989 72.6419 39.5314C71.9659 40.176 71.1564 40.6913 70.2605 41.0474C69.3233 41.4231 68.3099 41.6136 67.2866 41.6063C66.8001 41.6082 66.3142 41.5731 65.8341 41.5015C65.3861 41.4355 64.9459 41.3314 64.5191 41.1907C63.7489 40.9778 63.0265 40.6406 62.3862 40.1951C61.7974 39.7971 61.2713 39.3269 60.8228 38.7978C60.4378 38.3322 60.0817 37.847 59.7564 37.3447C59.5423 37.0128 59.3741 36.702 59.2097 36.412C59.0454 36.1221 58.9231 35.8671 58.8046 35.647C58.6861 35.427 58.4223 35.0113 58.1433 34.4838L57.1227 32.6185C56.7404 31.9198 56.3161 31.1129 55.8766 30.2571C55.437 29.4013 54.9745 28.5105 54.4928 27.6442C54.0112 26.7779 53.5334 25.8976 53.0632 25.0104C52.5931 24.1231 52.1573 23.3232 51.7483 22.5652C51.3393 21.8072 50.9838 21.133 50.6819 20.5531C50.3799 19.9733 50.1352 19.5052 49.9556 19.1838C49.7759 18.8624 49.646 18.59 49.4778 18.314C49.3096 18.038 49.1529 17.79 49.0038 17.5665C48.7848 17.2676 48.5421 16.9839 48.2775 16.7176C48.1233 16.5497 47.93 16.4152 47.7119 16.324C47.4937 16.2328 47.256 16.1871 47.0161 16.1902C46.3043 16.1891 45.6195 16.4394 45.1049 16.8888C44.641 17.3847 44.3981 18.0219 44.4245 18.6738V41.6028H39.203V18.6773C39.1463 16.8507 39.8797 15.0772 41.2442 13.7415C41.9474 13.0734 42.7936 12.5447 43.73 12.1884C44.6665 11.832 45.6731 11.6556 46.6874 11.67C47.7072 11.655 48.7226 11.7955 49.6918 12.0857C50.6522 12.3749 51.5129 12.8892 52.1879 13.5773C52.7114 14.0739 53.1812 14.6155 53.5907 15.1946C53.8965 15.6068 54.1985 16.0644 54.5005 16.5604C54.8025 17.0565 55.1197 17.6084 55.4523 18.2197C55.8473 18.9672 56.4066 20.0047 57.1303 21.3321C57.8541 22.6595 58.6084 24.0486 59.3932 25.4994C60.1807 26.9526 60.9286 28.3498 61.637 29.6912C62.3454 31.0326 62.9137 32.0805 63.3418 32.835C63.4674 33.0114 63.5737 33.1986 63.6591 33.3939C63.6964 33.5072 63.7574 33.6128 63.8387 33.7048C64.0834 34.0926 64.286 34.4384 64.4503 34.7528C64.6147 35.0672 64.7752 35.3326 64.9281 35.5807C65.0199 35.6924 65.1231 35.8357 65.2454 36.0173C65.3709 36.2019 65.5155 36.375 65.6774 36.5343C65.8459 36.7028 66.045 36.8434 66.266 36.95C66.502 37.0617 66.7647 37.1181 67.0305 37.1141C67.4239 37.1157 67.8138 37.0457 68.1772 36.9081C68.4692 36.7949 68.7302 36.6244 68.9417 36.4085C69.4074 35.9148 69.6518 35.2785 69.6259 34.627V11.67" fill="white"/>
<path fill-rule="evenodd" clip-rule="evenodd" d="M105.011 37.116C104.911 37.116 104.816 37.116 104.72 37.116H80.8528V41.5943H101.081C102.377 40.225 103.692 38.7299 105.011 37.1021" fill="white"/>
<path fill-rule="evenodd" clip-rule="evenodd" d="M81.2619 26.5125C82.1252 27.3073 83.1496 27.9409 84.2779 28.3778C85.4488 28.8273 86.708 29.0531 87.978 29.0415H104.736C105.675 29.0378 106.592 29.3062 107.354 29.8083C108.117 30.3104 108.685 31.0203 108.979 31.8361C109.998 30.355 110.939 28.9053 111.803 27.4871C111.658 27.3369 111.517 27.1867 111.36 27.0435C110.507 26.2661 109.499 25.6458 108.39 25.2165C107.234 24.7715 105.99 24.5457 104.736 24.5528H88.0239C87.439 24.5315 86.8648 24.4034 86.335 24.176C85.8052 23.9486 85.3306 23.6266 84.9391 23.2289C84.5493 22.8451 84.2338 22.4033 84.0065 21.9225C83.7788 21.4308 83.663 20.9019 83.6663 20.368C83.6594 19.8203 83.7751 19.277 84.0065 18.7717C84.2329 18.2904 84.5484 17.8485 84.9391 17.4652C85.737 16.67 86.8449 16.1933 88.0239 16.1378H111.662V11.6701H87.9627C86.6893 11.663 85.4286 11.9011 84.2626 12.3687C83.1452 12.8147 82.1239 13.4393 81.2467 14.2131C80.3703 15.0161 79.6697 15.9646 79.1825 17.0076C78.6718 18.0809 78.4114 19.2396 78.418 20.41C78.4148 21.5653 78.6752 22.7086 79.1825 23.7669C79.6687 24.8104 80.3694 25.7591 81.2467 26.5614" fill="white"/>
<path fill-rule="evenodd" clip-rule="evenodd" d="M129.919 41.6056V20.3778C129.908 19.234 130.152 18.1001 130.636 17.045C131.119 15.9899 131.832 15.0357 132.732 14.2404C133.598 13.4437 134.622 12.8037 135.748 12.3541C136.914 11.886 138.175 11.648 139.448 11.6554H161.091V16.1476H139.765C139.148 16.1484 138.537 16.2674 137.973 16.4969C137.128 16.8295 136.407 17.378 135.895 18.0764C135.384 18.7748 135.105 19.5935 135.091 20.4337V23.6683H161.083V28.1291H135.091V41.6056H129.919Z" fill="white"/>
<path fill-rule="evenodd" clip-rule="evenodd" d="M164.717 16.3123H169.889V11.6699H164.717V16.3123ZM164.717 41.606H169.889V20.2106H164.717V41.606Z" fill="white"/>
<path fill-rule="evenodd" clip-rule="evenodd" d="M183.911 41.606C182.646 41.6092 181.395 41.3712 180.237 40.9073C179.095 40.4631 178.057 39.8228 177.179 39.021C176.303 38.2455 175.608 37.3149 175.138 36.2859C174.647 35.2082 174.4 34.0509 174.412 32.8836V11.6699H179.584V32.8557C179.578 33.4101 179.694 33.9599 179.924 34.473C180.145 34.9629 180.461 35.4124 180.856 35.8004C181.684 36.5822 182.8 37.0552 183.987 37.1278L184.939 37.1697V41.606H183.895" fill="white"/>
<path fill-rule="evenodd" clip-rule="evenodd" d="M199.472 41.6043C198.203 41.6159 196.945 41.39 195.776 40.9406C194.647 40.5044 193.623 39.8708 192.76 39.0752C191.889 38.2828 191.189 37.3479 190.696 36.3191C190.184 35.2537 189.923 34.1015 189.931 32.9378V24.7288H187.684V20.2576H189.954V14.0293H195.172V20.2576H202.285V24.7288H195.164V32.8959C195.148 33.4332 195.252 33.968 195.47 34.4672C195.689 34.9664 196.016 35.4195 196.433 35.7987C196.825 36.1967 197.299 36.5191 197.829 36.7471C198.359 36.975 198.933 37.1039 199.518 37.1261H203.195V41.6043H199.472" fill="white"/>
<path fill-rule="evenodd" clip-rule="evenodd" d="M211.589 33.4369C211.646 33.9005 211.799 34.3498 212.04 34.7608C212.276 35.1659 212.566 35.5426 212.904 35.8821C213.334 36.2853 213.85 36.6036 214.42 36.8175C214.99 37.0314 215.602 37.1363 216.218 37.1257H235.135V41.6039H215.897C214.621 41.614 213.356 41.3883 212.178 40.9402C211.049 40.5133 210.029 39.8783 209.181 39.0749C208.307 38.2703 207.606 37.3222 207.117 36.2803C206.608 35.2066 206.347 34.0482 206.352 32.878V28.9168C206.346 27.7533 206.607 26.6015 207.117 25.5354C207.612 24.508 208.312 23.5736 209.181 22.7794C210.031 21.9781 211.05 21.3434 212.178 20.914C213.356 20.4659 214.621 20.2402 215.897 20.2503H228.465C230.337 20.2419 232.17 20.739 233.735 21.6792C235.299 22.6195 236.524 23.961 237.257 25.5354C237.749 26.6055 237.996 27.7562 237.983 28.9168V33.4369H211.589ZM212.912 25.9721C212.487 26.3587 212.148 26.8165 211.914 27.3204C211.662 27.836 211.532 28.3942 211.532 28.9587H232.811C232.809 28.3944 232.679 27.8366 232.429 27.3204C232.194 26.8165 231.856 26.3587 231.431 25.9721C231.001 25.5694 230.485 25.2514 229.915 25.0376C229.345 24.8238 228.733 24.7186 228.117 24.7285H216.218C215.603 24.7189 214.993 24.8243 214.424 25.0381C213.856 25.252 213.341 25.5698 212.912 25.9721V25.9721Z" fill="white"/>
<path fill-rule="evenodd" clip-rule="evenodd" d="M260 20.2569V24.7281H251.698C251.082 24.7175 250.47 24.8224 249.9 25.0363C249.33 25.2501 248.814 25.5685 248.384 25.9716C247.959 26.3583 247.621 26.8161 247.386 27.32C247.136 27.8361 247.006 28.3939 247.004 28.9582V41.6032H241.851V28.9163C241.848 27.7598 242.108 26.6154 242.616 25.5559C243.097 24.5202 243.781 23.5733 244.634 22.7615C245.52 21.9552 246.573 21.3185 247.731 20.8884C248.89 20.4584 250.13 20.2437 251.38 20.2569H260" fill="white"/>
<path fill-rule="evenodd" clip-rule="evenodd" d="M108.003 6.4758C112.441 3.49266 116.29 2.36438 118.622 3.76163C123.641 6.76573 119.75 20.3016 109.93 33.9947C100.11 47.6878 88.0843 56.3507 83.0692 53.3466C80.7337 51.9494 80.3285 48.2711 81.5402 43.3633C78.8186 51.359 78.9601 57.6152 82.5914 59.781C88.9443 63.5885 103.565 53.4654 115.243 37.1769C126.92 20.8885 131.255 4.60348 124.902 0.799456C121.271 -1.37327 114.941 1.00206 108.003 6.4758Z" fill="#534FFF"/>
</g>
<defs>
<clipPath id="clip0_2008_238323">
<rect width="260" height="60.5825" fill="white"/>
</clipPath>
</defs>
</svg>
